<svg xmlns="http://www.w3.org/2000/svg" xmlns:xlink="http://www.w3.org/1999/xlink" width="400" height="180.953" viewBox="0 0 400 180.953">
  <defs>
    <clipPath id="clip-path">
      <rect id="Rect치ngulo_402098" data-name="Rect치ngulo 402098" width="399.039" height="180.953" rx="20" fill="#6e3dc6"/>
    </clipPath>
    <linearGradient id="linear-gradient" x1="0.5" x2="0.5" y2="1" gradientUnits="objectBoundingBox">
      <stop offset="0" stop-color="#be79ca"/>
      <stop offset="1" stop-color="#22005e"/>
    </linearGradient>
    <linearGradient id="linear-gradient-2" x1="0.106" y1="0.024" x2="0.5" y2="1" gradientUnits="objectBoundingBox">
      <stop offset="0" stop-color="#75baf1"/>
      <stop offset="1" stop-color="#be79ca"/>
    </linearGradient>
  </defs>
  <g id="Grupo_1102114" data-name="Grupo 1102114" transform="translate(-390 -20805.244)">
    <rect id="Rect치ngulo_402095" data-name="Rect치ngulo 402095" width="400" height="180.953" rx="20" transform="translate(390 20805.244)" fill="#75baf1" opacity="0.5"/>
    <g id="Enmascarar_grupo_1098728" data-name="Enmascarar grupo 1098728" transform="translate(390.961 20805.244)" opacity="0.5" clip-path="url(#clip-path)">
      <g id="Grupo_1100312" data-name="Grupo 1100312" transform="translate(-223.755 -198.239)">
        <path id="Trazado_875782" data-name="Trazado 875782" d="M351.779,0C546.061,0,703.558,69.586,703.558,155.425S546.061,310.85,351.779,310.85,0,241.264,0,155.425,157.5,0,351.779,0Z" transform="translate(1032.63 532.014) rotate(180)" opacity="0.5" fill="url(#linear-gradient)"/>
        <path id="Elipse_4044" data-name="Elipse 4044" d="M186.377,22.256c-74.993,0-136,26.956-136,60.09s61.011,60.09,136,60.09,136-26.956,136-60.09-61.011-60.09-136-60.09m0-22.256C289.31,0,372.753,36.868,372.753,82.346s-83.444,82.346-186.377,82.346S0,127.824,0,82.346,83.444,0,186.377,0Z" transform="translate(0 332.616)" opacity="0.5" fill="url(#linear-gradient-2)"/>
        <path id="Elipse_4044-2" data-name="Elipse 4044" d="M424.424,50.681c-170.777,0-309.715,61.386-309.715,136.84s138.937,136.84,309.715,136.84,309.715-61.386,309.715-136.84S595.2,50.681,424.424,50.681m0-50.681c234.4,0,424.424,83.956,424.424,187.521S658.826,375.042,424.424,375.042,0,291.086,0,187.521,190.021,0,424.424,0Z" transform="translate(497.961)" opacity="0.8" fill="url(#linear-gradient-2)"/>
        <path id="Elipse_4044-3" data-name="Elipse 4044" d="M9.434,1.127c3.8,0,6.884,1.365,6.884,3.042S13.23,7.21,9.434,7.21,2.55,5.846,2.55,4.168,5.638,1.127,9.434,1.127M9.434,0C4.224,0,0,1.866,0,4.168S4.224,8.337,9.434,8.337s9.434-1.866,9.434-4.168S14.645,0,9.434,0Z" transform="translate(799.861 358.866)" fill="#fff"/>
        <ellipse id="Elipse_11551" data-name="Elipse 11551" cx="5.25" cy="2.32" rx="5.25" ry="2.32" transform="translate(773.608 250.548)" fill="#fff"/>
        <ellipse id="Elipse_11552" data-name="Elipse 11552" cx="5.25" cy="2.32" rx="5.25" ry="2.32" transform="translate(699.227 374.269)" fill="#fff"/>
      </g>
    </g>
  </g>
</svg>
