<svg xmlns="http://www.w3.org/2000/svg" width="1240" height="780" viewBox="0 0 1240 780">
  <g id="Grupo_1102104" data-name="Grupo 1102104" transform="translate(-180 -511.5)">
    <line id="Línea_587" data-name="Línea 587" y2="133.521" transform="translate(798.263 511.5)" fill="none" stroke="#6e3dc6" stroke-width="3"/>
    <rect id="Rectángulo_401172" data-name="Rectángulo 401172" width="254" height="85.294" rx="15" transform="translate(671.263 511.727)" fill="#6e3dc6"/>
    <text id="Ventas_y_comunicación" data-name="Ventas y comunicación" transform="translate(699.263 531.538)" fill="#fff" font-size="20" font-family="Roboto-Black, Roboto" font-weight="800"><tspan x="-39.009" y="19">Ventas y </tspan><tspan x="-63.154" y="46">comunicación</tspan></text>
    <rect id="Rectángulo_401173" data-name="Rectángulo 401173" width="246.351" height="71.141" rx="15" transform="translate(180 681)" fill="#6e3dc6"/>
    <rect id="Rectángulo_401174" data-name="Rectángulo 401174" width="246.351" height="71.141" rx="15" transform="translate(534.008 681)" fill="#6e3dc6"/>
    <rect id="Rectángulo_401175" data-name="Rectángulo 401175" width="246.351" height="71.141" rx="15" transform="translate(892.865 681)" fill="#6e3dc6"/>
    <text id="La_venta" data-name="La venta" transform="translate(207.157 705)" fill="#fff" font-size="20" font-family="Roboto-Black, Roboto" font-weight="800"><tspan x="-38.145" y="19">La venta</tspan></text>
    <text id="Transacciones_comerciales" data-name="Transacciones comerciales" transform="translate(561.165 695)" fill="#fff" font-size="20" font-family="Roboto-Black, Roboto" font-weight="800"><tspan x="-65.967" y="19">Transacciones </tspan><tspan x="-55.132" y="39">comerciales</tspan></text>
    <text id="Comunicación" transform="translate(920.022 705)" fill="#fff" font-size="20" font-family="Roboto-Black, Roboto" font-weight="800"><tspan x="-64.521" y="19">Comunicación</tspan></text>
    <line id="Línea_583" data-name="Línea 583" y2="513.5" transform="translate(203.762 744)" fill="none" stroke="#6e3dc6" stroke-width="3"/>
    <line id="Línea_628" data-name="Línea 628" y2="347.5" transform="translate(567.196 744)" fill="none" stroke="#6e3dc6" stroke-width="3"/>
    <line id="Línea_629" data-name="Línea 629" y2="430.5" transform="translate(920.489 744)" fill="none" stroke="#6e3dc6" stroke-width="3"/>
    <path id="Trazado_873350" data-name="Trazado 873350" d="M59.462,716.192H0V0" transform="translate(1019.384 644.538) rotate(90)" fill="none" stroke="#6e3dc6" stroke-width="3"/>
    <path id="Trazado_873351" data-name="Trazado 873351" d="M59.462,0H0" transform="translate(657.185 644.538) rotate(90)" fill="none" stroke="#6e3dc6" stroke-width="3"/>
    <path id="Trazado_873352" data-name="Trazado 873352" d="M59.462,0H0" transform="translate(1016.042 644.538) rotate(90)" fill="none" stroke="#6e3dc6" stroke-width="3"/>
    <g id="Grupo_1101018" data-name="Grupo 1101018" transform="translate(203.295 808.5)">
      <g id="Rectángulo_401192" data-name="Rectángulo 401192" transform="translate(26.169)" fill="none" stroke="#6e3dc6" stroke-width="3">
        <rect width="263.809" height="68" rx="15" stroke="none"/>
        <rect x="1.5" y="1.5" width="260.809" height="65" rx="13.5" fill="none"/>
      </g>
      <text id="Herramientas" transform="translate(62.055 24.5)" fill="#12263f" font-size="16" font-family="Roboto-Regular, Roboto"><tspan x="-48.246" y="15">Herramientas</tspan></text>
      <path id="Trazado_873339" data-name="Trazado 873339" d="M-14255.7-8994.744h-26.279" transform="translate(14281.982 9029)" fill="none" stroke="#6e3dc6" stroke-width="3"/>
    </g>
    <g id="Grupo_1101029" data-name="Grupo 1101029" transform="translate(566.729 808.5)">
      <g id="Rectángulo_401192-2" data-name="Rectángulo 401192" transform="translate(26.169)" fill="none" stroke="#6e3dc6" stroke-width="3">
        <rect width="263.809" height="68" rx="15" stroke="none"/>
        <rect x="1.5" y="1.5" width="260.809" height="65" rx="13.5" fill="none"/>
      </g>
      <text id="Formas_de_pago" data-name="Formas de pago" transform="translate(62.055 24.5)" fill="#12263f" font-size="16" font-family="Roboto-Regular, Roboto"><tspan x="-57.699" y="15">Formas de pago</tspan></text>
      <path id="Trazado_873339-2" data-name="Trazado 873339" d="M-14255.7-8994.744h-26.279" transform="translate(14281.982 9029)" fill="none" stroke="#6e3dc6" stroke-width="3"/>
    </g>
    <g id="Grupo_1101035" data-name="Grupo 1101035" transform="translate(920.022 808.5)">
      <g id="Rectángulo_401192-3" data-name="Rectángulo 401192" transform="translate(26.169)" fill="none" stroke="#6e3dc6" stroke-width="3">
        <rect width="263.809" height="68" rx="15" stroke="none"/>
        <rect x="1.5" y="1.5" width="260.809" height="65" rx="13.5" fill="none"/>
      </g>
      <text id="Conceptos_y_elementos" data-name="Conceptos y elementos" transform="translate(62.055 24.5)" fill="#12263f" font-size="16" font-family="Roboto-Regular, Roboto"><tspan x="-83.371" y="15">Conceptos y elementos</tspan></text>
      <path id="Trazado_873339-3" data-name="Trazado 873339" d="M-14255.7-8994.744h-26.279" transform="translate(14281.982 9029)" fill="none" stroke="#6e3dc6" stroke-width="3"/>
    </g>
    <g id="Grupo_1101036" data-name="Grupo 1101036" transform="translate(1210 983.5)">
      <g id="Rectángulo_401192-4" data-name="Rectángulo 401192" transform="translate(20 -45)" fill="none" stroke="#6e3dc6" stroke-width="3">
        <rect width="190" height="68" rx="15" stroke="none"/>
        <rect x="1.5" y="1.5" width="187" height="65" rx="13.5" fill="none"/>
      </g>
      <g id="Rectángulo_402725" data-name="Rectángulo 402725" transform="translate(20 34.256)" fill="none" stroke="#6e3dc6" stroke-width="3">
        <rect width="190" height="68" rx="15" stroke="none"/>
        <rect x="1.5" y="1.5" width="187" height="65" rx="13.5" fill="none"/>
      </g>
      <text id="Interna" transform="translate(40 -20.5)" fill="#12263f" font-size="16" font-family="Roboto-Regular, Roboto"><tspan x="-24.914" y="15">Interna</tspan></text>
      <text id="Externa" transform="translate(40 58.756)" fill="#12263f" font-size="16" font-family="Roboto-Regular, Roboto"><tspan x="-26.836" y="15">Externa</tspan></text>
      <path id="Trazado_873339-4" data-name="Trazado 873339" d="M-14271.105-8994.744h-10.877" transform="translate(14281.982 9021)" fill="none" stroke="#6e3dc6" stroke-width="3"/>
      <path id="Trazado_877360" data-name="Trazado 877360" d="M20-13.646H9.756V68.07H20" fill="none" stroke="#6e3dc6" stroke-width="3"/>
    </g>
    <g id="Grupo_1101037" data-name="Grupo 1101037" transform="translate(1210 1149.5)">
      <g id="Rectángulo_401192-5" data-name="Rectángulo 401192" transform="translate(20 -45)" fill="none" stroke="#6e3dc6" stroke-width="3">
        <rect width="190" height="68" rx="15" stroke="none"/>
        <rect x="1.5" y="1.5" width="187" height="65" rx="13.5" fill="none"/>
      </g>
      <g id="Rectángulo_402725-2" data-name="Rectángulo 402725" transform="translate(20 34.256)" fill="none" stroke="#6e3dc6" stroke-width="3">
        <rect width="190" height="68" rx="15" stroke="none"/>
        <rect x="1.5" y="1.5" width="187" height="65" rx="13.5" fill="none"/>
      </g>
      <text id="Oral" transform="translate(40 -20.5)" fill="#12263f" font-size="16" font-family="Roboto-Regular, Roboto"><tspan x="-14.344" y="15">Oral</tspan></text>
      <text id="No_verbal" data-name="No verbal" transform="translate(40 58.756)" fill="#12263f" font-size="16" font-family="Roboto-Regular, Roboto"><tspan x="-33.797" y="15">No verbal</tspan></text>
      <path id="Trazado_873339-5" data-name="Trazado 873339" d="M-14271.105-8994.744h-10.877" transform="translate(14281.982 9021)" fill="none" stroke="#6e3dc6" stroke-width="3"/>
      <path id="Trazado_877360-2" data-name="Trazado 877360" d="M20-13.646H9.756V68.07H20" fill="none" stroke="#6e3dc6" stroke-width="3"/>
    </g>
    <g id="Grupo_1101023" data-name="Grupo 1101023" transform="translate(203.295 1057.5)">
      <g id="Rectángulo_401192-6" data-name="Rectángulo 401192" transform="translate(26.169)" fill="none" stroke="#6e3dc6" stroke-width="3">
        <rect width="263.809" height="68" rx="15" stroke="none"/>
        <rect x="1.5" y="1.5" width="260.809" height="65" rx="13.5" fill="none"/>
      </g>
      <text id="Venta_consultiva" data-name="Venta consultiva" transform="translate(62.055 24.5)" fill="#12263f" font-size="16" font-family="Roboto-Regular, Roboto"><tspan x="-58.879" y="15">Venta consultiva</tspan></text>
      <path id="Trazado_873339-6" data-name="Trazado 873339" d="M-14255.7-8994.744h-26.279" transform="translate(14281.982 9029)" fill="none" stroke="#6e3dc6" stroke-width="3"/>
    </g>
    <g id="Grupo_1101026" data-name="Grupo 1101026" transform="translate(566.729 1057.5)">
      <g id="Rectángulo_401192-7" data-name="Rectángulo 401192" transform="translate(26.169)" fill="none" stroke="#6e3dc6" stroke-width="3">
        <rect width="263.809" height="68" rx="15" stroke="none"/>
        <rect x="1.5" y="1.5" width="260.809" height="65" rx="13.5" fill="none"/>
      </g>
      <text id="Condiciones_de_entrega" data-name="Condiciones de entrega" transform="translate(62.055 24.5)" fill="#12263f" font-size="16" font-family="Roboto-Regular, Roboto"><tspan x="-83.793" y="15">Condiciones de entrega</tspan></text>
      <path id="Trazado_873339-7" data-name="Trazado 873339" d="M-14255.7-8994.744h-26.279" transform="translate(14281.982 9029)" fill="none" stroke="#6e3dc6" stroke-width="3"/>
    </g>
    <g id="Grupo_1101032" data-name="Grupo 1101032" transform="translate(920.022 1057.5)">
      <g id="Rectángulo_401192-8" data-name="Rectángulo 401192" transform="translate(26.169)" fill="none" stroke="#6e3dc6" stroke-width="3">
        <rect width="263.809" height="68" rx="15" stroke="none"/>
        <rect x="1.5" y="1.5" width="260.809" height="65" rx="13.5" fill="none"/>
      </g>
      <text id="Medios_de_comunicación_y_tipos_de_medios" data-name="Medios de comunicación y tipos de medios" transform="translate(62.055 12.756)" fill="#12263f" font-size="16" font-family="Roboto-Regular, Roboto"><tspan x="-95.012" y="15">Medios de comunicación y </tspan><tspan x="-56.832" y="39">tipos de medios</tspan></text>
      <path id="Trazado_873339-8" data-name="Trazado 873339" d="M-14255.7-8994.744h-26.279" transform="translate(14281.982 9029)" fill="none" stroke="#6e3dc6" stroke-width="3"/>
    </g>
    <g id="Grupo_1101019" data-name="Grupo 1101019" transform="translate(203.295 891.5)">
      <g id="Rectángulo_401192-9" data-name="Rectángulo 401192" transform="translate(26.169)" fill="none" stroke="#6e3dc6" stroke-width="3">
        <rect width="263.809" height="68" rx="15" stroke="none"/>
        <rect x="1.5" y="1.5" width="260.809" height="65" rx="13.5" fill="none"/>
      </g>
      <text id="Tipos_de_vendedores" data-name="Tipos de vendedores" transform="translate(62.055 24.5)" fill="#12263f" font-size="16" font-family="Roboto-Regular, Roboto"><tspan x="-73.898" y="15">Tipos de vendedores</tspan></text>
      <path id="Trazado_873339-9" data-name="Trazado 873339" d="M-14255.7-8994.744h-26.279" transform="translate(14281.982 9029)" fill="none" stroke="#6e3dc6" stroke-width="3"/>
    </g>
    <g id="Grupo_1101028" data-name="Grupo 1101028" transform="translate(566.729 891.5)">
      <g id="Rectángulo_401192-10" data-name="Rectángulo 401192" transform="translate(26.169)" fill="none" stroke="#6e3dc6" stroke-width="3">
        <rect width="263.809" height="68" rx="15" stroke="none"/>
        <rect x="1.5" y="1.5" width="260.809" height="65" rx="13.5" fill="none"/>
      </g>
      <text id="Documentos_comerciales" data-name="Documentos comerciales" transform="translate(62.055 24.5)" fill="#12263f" font-size="16" font-family="Roboto-Regular, Roboto"><tspan x="-90.691" y="15">Documentos comerciales</tspan></text>
      <path id="Trazado_873339-10" data-name="Trazado 873339" d="M-14255.7-8994.744h-26.279" transform="translate(14281.982 9029)" fill="none" stroke="#6e3dc6" stroke-width="3"/>
    </g>
    <g id="Grupo_1101034" data-name="Grupo 1101034" transform="translate(920.022 891.5)">
      <g id="Rectángulo_401192-11" data-name="Rectángulo 401192" transform="translate(26.169)" fill="none" stroke="#6e3dc6" stroke-width="3">
        <rect width="263.809" height="68" rx="15" stroke="none"/>
        <rect x="1.5" y="1.5" width="260.809" height="65" rx="13.5" fill="none"/>
      </g>
      <text id="Herramientas_y_funciones" data-name="Herramientas y funciones" transform="translate(62.055 24.5)" fill="#12263f" font-size="16" font-family="Roboto-Regular, Roboto"><tspan x="-91.063" y="15">Herramientas y funciones</tspan></text>
      <path id="Trazado_873339-11" data-name="Trazado 873339" d="M-14255.7-8994.744h-26.279" transform="translate(14281.982 9029)" fill="none" stroke="#6e3dc6" stroke-width="3"/>
    </g>
    <g id="Grupo_1101022" data-name="Grupo 1101022" transform="translate(203.295 1140.5)">
      <g id="Rectángulo_401192-12" data-name="Rectángulo 401192" transform="translate(26.169)" fill="none" stroke="#6e3dc6" stroke-width="3">
        <rect width="263.809" height="68" rx="15" stroke="none"/>
        <rect x="1.5" y="1.5" width="260.809" height="65" rx="13.5" fill="none"/>
      </g>
      <text id="Clínicas_de_venta" data-name="Clínicas de venta" transform="translate(62.055 24.5)" fill="#12263f" font-size="16" font-family="Roboto-Regular, Roboto"><tspan x="-60.297" y="15">Clínicas de venta</tspan></text>
      <path id="Trazado_873339-12" data-name="Trazado 873339" d="M-14255.7-8994.744h-26.279" transform="translate(14281.982 9029)" fill="none" stroke="#6e3dc6" stroke-width="3"/>
    </g>
    <g id="Grupo_1101031" data-name="Grupo 1101031" transform="translate(920.022 1140.5)">
      <g id="Rectángulo_401192-13" data-name="Rectángulo 401192" transform="translate(26.169)" fill="none" stroke="#6e3dc6" stroke-width="3">
        <rect width="263.809" height="68" rx="15" stroke="none"/>
        <rect x="1.5" y="1.5" width="260.809" height="65" rx="13.5" fill="none"/>
      </g>
      <text id="Comunicación_con_los_clientes" data-name="Comunicación con los clientes" transform="translate(62.055 12.756)" fill="#12263f" font-size="16" font-family="Roboto-Regular, Roboto"><tspan x="-78.945" y="15">Comunicación con los </tspan><tspan x="-27.699" y="39">clientes</tspan></text>
      <path id="Trazado_873339-13" data-name="Trazado 873339" d="M-14255.7-8994.744h-26.279" transform="translate(14281.982 9029)" fill="none" stroke="#6e3dc6" stroke-width="3"/>
    </g>
    <g id="Grupo_1101020" data-name="Grupo 1101020" transform="translate(203.295 974.5)">
      <g id="Rectángulo_401192-14" data-name="Rectángulo 401192" transform="translate(26.169)" fill="none" stroke="#6e3dc6" stroke-width="3">
        <rect width="263.809" height="68" rx="15" stroke="none"/>
        <rect x="1.5" y="1.5" width="260.809" height="65" rx="13.5" fill="none"/>
      </g>
      <text id="Procesos_estrategias_y_técnicas" data-name="Procesos, estrategias y técnicas" transform="translate(62.055 12.756)" fill="#12263f" font-size="16" font-family="Roboto-Regular, Roboto"><tspan x="-82.43" y="15">Procesos, estrategias y </tspan><tspan x="-30.059" y="39">técnicas</tspan></text>
      <path id="Trazado_873339-14" data-name="Trazado 873339" d="M-14255.7-8994.744h-26.279" transform="translate(14281.982 9029)" fill="none" stroke="#6e3dc6" stroke-width="3"/>
    </g>
    <g id="Grupo_1101027" data-name="Grupo 1101027" transform="translate(566.729 974.5)">
      <g id="Rectángulo_401192-15" data-name="Rectángulo 401192" transform="translate(26.169)" fill="none" stroke="#6e3dc6" stroke-width="3">
        <rect width="263.809" height="68" rx="15" stroke="none"/>
        <rect x="1.5" y="1.5" width="260.809" height="65" rx="13.5" fill="none"/>
      </g>
      <text id="Condiciones_comerciales" data-name="Condiciones comerciales" transform="translate(62.055 24.5)" fill="#12263f" font-size="16" font-family="Roboto-Regular, Roboto"><tspan x="-89.504" y="15">Condiciones comerciales</tspan></text>
      <path id="Trazado_873339-15" data-name="Trazado 873339" d="M-14255.7-8994.744h-26.279" transform="translate(14281.982 9029)" fill="none" stroke="#6e3dc6" stroke-width="3"/>
    </g>
    <g id="Grupo_1101033" data-name="Grupo 1101033" transform="translate(920.022 974.5)">
      <g id="Rectángulo_401192-16" data-name="Rectángulo 401192" transform="translate(26.169)" fill="none" stroke="#6e3dc6" stroke-width="3">
        <rect width="263.809" height="68" rx="15" stroke="none"/>
        <rect x="1.5" y="1.5" width="260.809" height="65" rx="13.5" fill="none"/>
      </g>
      <text id="Tipos_de_comunicación" data-name="Tipos de comunicación" transform="translate(62.055 24.5)" fill="#12263f" font-size="16" font-family="Roboto-Regular, Roboto"><tspan x="-82.773" y="15">Tipos de comunicación</tspan></text>
      <path id="Trazado_873339-16" data-name="Trazado 873339" d="M-14255.7-8994.744h-26.279" transform="translate(14281.982 9029)" fill="none" stroke="#6e3dc6" stroke-width="3"/>
    </g>
    <g id="Grupo_1101021" data-name="Grupo 1101021" transform="translate(203.295 1223.5)">
      <g id="Rectángulo_401192-17" data-name="Rectángulo 401192" transform="translate(26.169)" fill="none" stroke="#6e3dc6" stroke-width="3">
        <rect width="263.809" height="68" rx="15" stroke="none"/>
        <rect x="1.5" y="1.5" width="260.809" height="65" rx="13.5" fill="none"/>
      </g>
      <text id="Manejo_de_objeciones" data-name="Manejo de objeciones" transform="translate(62.055 24.5)" fill="#12263f" font-size="16" font-family="Roboto-Regular, Roboto"><tspan x="-77.84" y="15">Manejo de objeciones</tspan></text>
      <path id="Trazado_873339-17" data-name="Trazado 873339" d="M-14255.7-8994.744h-26.279" transform="translate(14281.982 9029)" fill="none" stroke="#6e3dc6" stroke-width="3"/>
    </g>
  </g>
</svg>
